<?xml version="1.0" encoding="utf-8"?>
<!-- Generator: Adobe Illustrator 16.0.0, SVG Export Plug-In . SVG Version: 6.00 Build 0)  -->
<!DOCTYPE svg PUBLIC "-//W3C//DTD SVG 1.1//EN" "http://www.w3.org/Graphics/SVG/1.1/DTD/svg11.dtd">
<svg version="1.1" id="Warstwa_1" xmlns="http://www.w3.org/2000/svg" xmlns:xlink="http://www.w3.org/1999/xlink" x="0px" y="0px"
	 width="549.571px" height="216px" viewBox="0 0 549.571 216" enable-background="new 0 0 549.571 216" xml:space="preserve">
<g>
	<path fill="#70BD95" d="M389.766,34.175l-6.586-7.525l0.096-0.081c-0.134,0.105-13.9,10.476-59.193,2.573
		c-51.403-8.97-72.237,13.73-73.099,14.702c-1.822,2.053-1.634,5.177,0.404,7.016c0.952,0.859,2.146,1.281,3.339,1.281
		c1.362,0,2.72-0.551,3.709-1.629c0.677-0.738,15.892-16.734,54.148-12.86L301.27,83.952c-8.504,34.804-20.252,41.935-35.275,41.935
		c-6.723,0-12.182-2.096-16.4-4.854c6.732,0.487,14.701-0.672,22.639-5.85c2.313-1.508,2.965-4.606,1.457-6.919
		c-1.509-2.313-4.605-2.966-6.919-1.457c-14.303,9.327-29.061,0.698-29.665,0.337c-1.857-1.134-4.234-0.936-5.878,0.489
		c-1.645,1.425-2.179,3.749-1.322,5.749c0.311,0.726,0.749,1.589,1.304,2.542c-0.418,0.368-0.793,0.796-1.079,1.31
		c-2.612,4.701-11.337,10.117-21.171,15.867c3.84-15.861,6.784-28.092,7.132-29.54c0.424-1.393,0.819-2.823,1.179-4.295l4.337-17.75
		l-9.714-2.374l-4.337,17.75c-2.546,10.421-9.374,28.045-26.49,29.002c-5.34,0.303-9.024-0.852-11.242-3.52
		c-4.808-5.784-2.421-17.529-1.575-20.996c2.382-9.748,4.263-17.448,0.368-22.409c-1.304-1.661-3.813-3.641-8.366-3.641
		c-5.854,0-10.615,6.776-20.825,22.104c-4.755,7.138-9.671,14.519-14.443,20.208c-6.583,7.848-9.47,8.246-9.981,8.246
		c-4.162,0-5.025-0.821-5.029-0.824c-0.798-1.214,0.792-7.403,1.845-11.498c0.351-1.364,0.719-2.796,1.084-4.293
		c2.493-10.202,4.697-21.666-0.743-28.595c-2.785-3.548-7.044-5.347-12.657-5.347c-7.824,0-13.178,2.862-17.191,7.99
		c-0.481-1.056-1.057-2.04-1.756-2.931c-1.812-2.308-5.244-5.059-11.302-5.059c-6.228,0-10.997,2.154-14.684,5.378
		c-0.993-1.15-2.131-1.793-2.91-2.126c-7.331-3.135-18.647,4.783-24.621,14.141c-6.192,9.701-16.556,25.938-24.114,29.393
		c-2.512,1.148-3.617,4.115-2.469,6.626s4.117,3.618,6.626,2.469c9.459-4.324,18.825-18.128,28.386-33.107
		c3.503-5.488,8.336-8.786,11.02-9.849c-0.034,0.17-0.075,0.356-0.124,0.557l-4.106,16.803c-0.006,0.026-0.014,0.055-0.02,0.082v0
		L36.37,129.7c-0.656,2.683,0.988,5.389,3.67,6.044c0.399,0.098,0.798,0.144,1.191,0.144c2.25,0,4.295-1.53,4.853-3.814
		l5.868-24.013c3.999-16.358,8.85-22.731,17.299-22.731c2.467,0,3.146,0.865,3.437,1.234c2.461,3.135,1.922,12.037-1.602,26.458
		L67.01,129.7c-0.656,2.683,0.988,5.389,3.67,6.044c0.399,0.098,0.798,0.144,1.191,0.144c2.25,0,4.295-1.53,4.853-3.814
		l4.075-16.678C86.773,90.95,90.269,85.33,99.501,85.33c3.596,0,4.496,1.146,4.791,1.522c2.893,3.685-0.012,15.571-1.105,20.046
		c-0.356,1.457-0.714,2.851-1.056,4.179c-2.178,8.474-3.898,15.167-0.063,20.112c3.266,4.211,8.945,4.699,12.933,4.699
		c10.071,0,19.505-13.031,32.747-32.91c4.42-6.636,10.391-15.599,13.059-17.568c0.506,2.231-1.152,9.017-2.272,13.601
		c-1.793,7.339-3.71,20.963,3.6,29.757c3.961,4.765,9.797,7.172,17.369,7.172c0.693,0,1.4-0.02,2.122-0.061
		c6.689-0.374,12.738-2.628,17.958-6.546c-0.832,3.437-1.708,7.055-2.614,10.786c-11.138,6.662-22.448,14.187-30.063,23.347
		c-10.024,12.057-13.047,25.802-8.088,36.766c2.977,6.583,8.358,10.771,14.044,10.928c0.17,0.005,0.337,0.007,0.505,0.007
		c13.832,0,20.479-16.043,27.222-43.64c1.699-6.951,3.435-14.084,5.102-20.951c1.561-0.916,3.11-1.815,4.636-2.702
		c11.893-6.908,22.286-12.959,27.256-19.807c6.038,6.009,15.438,11.818,28.411,11.818c23.045,0,36.5-14.822,44.99-49.561
		l11.559-47.303C372.554,47.715,388.15,35.588,389.766,34.175z M190.876,165.154c-7.853,32.136-13.591,36.113-17.736,36.01
		c-1.436-0.04-3.75-1.824-5.21-5.053c-1.253-2.771-4.475-12.851,6.667-26.253c4.815-5.792,11.64-11.036,19-15.856
		C192.689,157.727,191.777,161.466,190.876,165.154z"/>
	<path fill="#70BD95" d="M549.571,118.165c-1.595-2.247-4.714-2.774-6.965-1.187c-0.126,0.088-12.771,8.856-31.195,8.856
		c-11.095,0-16.063-20.13-17.591-31.598l42.92-6.416c2.731-0.408,4.614-2.953,4.206-5.684c-0.408-2.73-2.94-4.616-5.685-4.206
		l-41.146,6.15l14.391-58.893c0.655-2.683-0.988-5.389-3.671-6.044c-2.683-0.657-5.388,0.988-6.044,3.67l-1.542,6.31
		c-9.929,34.421-26.605,58.554-49.605,71.81c-3.559-11.289-9.573-21.359-10.715-23.221c-0.868-1.414-2.38-2.305-4.037-2.379
		c-1.653-0.077-3.243,0.677-4.233,2.007c-16.242,21.795-37.002,46.319-42.641,48.486c-2.714-0.085-3.396-0.959-3.626-1.254
		c-0.768-0.984-2.266-4.444,0.39-15.306l6.78-27.752c0.655-2.683-0.988-5.388-3.671-6.043c-2.688-0.654-5.39,0.989-6.044,3.671
		l-1.28,5.24c-4.496-5.838-11.488-9.054-19.692-9.054c-16.372,0-32.6,12.721-36.943,28.96c-2.222,8.305-0.866,16.493,3.719,22.464
		c4.495,5.856,11.497,9.081,19.715,9.081c9.644,0,19.235-4.417,26.38-11.365c0.507,2.461,1.421,4.535,2.763,6.255
		c2.62,3.359,6.589,5.078,11.796,5.11c0.021,0,0.04,0,0.061,0c2.905,0,7.027-1.3,18.257-13.322c0.672,1.957,1.794,4.117,3.654,6.151
		c4.352,4.759,11.173,7.171,20.265,7.171c0.043,0,0.086,0,0.128,0c11.563,0,16.802-5.023,19.16-9.237
		c2.456-4.39,2.869-9.85,2.139-15.519c10.897-5.841,23.615-15.604,35.041-31.852l-12.347,50.526
		c-0.655,2.683,0.988,5.389,3.671,6.044c0.398,0.098,0.798,0.144,1.19,0.144c2.251,0,4.295-1.53,4.854-3.814l4.965-20.316
		c3.697,11.826,10.742,24.024,24.07,24.024c21.764,0,36.386-10.274,36.998-10.712C550.65,123.521,551.166,120.412,549.571,118.165z
		 M372.648,104.29c-3.124,11.679-15.618,21.545-27.283,21.545c-5.039,0-9.224-1.836-11.783-5.17
		c-2.716-3.538-3.423-8.436-1.99-13.791c3.124-11.678,15.618-21.544,27.283-21.544c5.039,0,9.224,1.836,11.783,5.17
		C373.374,94.038,374.081,98.935,372.648,104.29z M416.594,108.798c5.982-7.197,11.657-14.451,15.438-19.369
		c2.531,4.937,4.979,10.631,6.559,16.009c-9.983,4.204-18.744,5.48-24.068,5.834C415.195,110.475,415.887,109.649,416.594,108.798z
		 M439.101,121.715c-0.569,1.019-2.305,4.12-10.445,4.12c-6.059,0.047-10.52-1.303-12.901-3.813
		c-0.233-0.246-0.441-0.498-0.627-0.751c5.829-0.375,14.863-1.683,25.237-5.755C440.398,117.948,440.02,120.073,439.101,121.715z"/>
</g>
</svg>
